<?xml version="1.0" encoding="UTF-8" standalone="no"?>
<!-- Created with Inkscape (http://www.inkscape.org/) -->

<svg
   width="82.393196mm"
   height="65.610832mm"
   viewBox="0 0 82.393196 65.610832"
   version="1.1"
   id="svg6366"
   inkscape:version="1.1.1 (3bf5ae0d25, 2021-09-20)"
   sodipodi:docname="mediating-person.svg"
   xmlns:inkscape="http://www.inkscape.org/namespaces/inkscape"
   xmlns:sodipodi="http://sodipodi.sourceforge.net/DTD/sodipodi-0.dtd"
   xmlns="http://www.w3.org/2000/svg"
   xmlns:svg="http://www.w3.org/2000/svg">
  <sodipodi:namedview
     id="namedview6368"
     pagecolor="#ffffff"
     bordercolor="#666666"
     borderopacity="1.0"
     inkscape:pageshadow="2"
     inkscape:pageopacity="0.0"
     inkscape:pagecheckerboard="0"
     inkscape:document-units="mm"
     showgrid="false"
     inkscape:zoom="1.6017536"
     inkscape:cx="170.75036"
     inkscape:cy="-11.549841"
     inkscape:window-width="2560"
     inkscape:window-height="1377"
     inkscape:window-x="1072"
     inkscape:window-y="468"
     inkscape:window-maximized="1"
     inkscape:current-layer="layer1"
     fit-margin-top="0"
     fit-margin-left="0"
     fit-margin-right="0"
     fit-margin-bottom="0" />
  <defs
     id="defs6363" />
  <g
     inkscape:label="Layer 1"
     inkscape:groupmode="layer"
     id="layer1"
     transform="translate(-45.200527,-194.33775)">
    <path
       style="fill:#ffffff;fill-opacity:1;stroke-width:0.161084"
       d="m 59.352005,259.75738 c -0.885858,-0.19781 -2.019492,-1.28296 -2.265376,-2.16848 -0.115485,-0.4159 -0.172558,-4.76355 -0.17316,-13.19074 l -8.99e-4,-12.57037 14.64959,-12.07553 c 8.057273,-6.64153 14.730247,-12.07552 14.82883,-12.07552 0.09858,0 6.771558,5.43399 14.82883,12.07552 l 14.64959,12.07553 -9.7e-4,12.57037 c -6.4e-4,8.42719 -0.0577,12.77484 -0.17316,13.19074 -0.26556,0.95639 -1.36637,1.96117 -2.38882,2.18045 -0.56132,0.12039 -4.03232,0.17923 -10.57335,0.17923 h -9.737665 v -9.82614 -9.82614 H 86.39099 79.786536 v 9.82614 9.82614 l -9.866411,-0.0173 c -5.735133,-0.01 -10.160232,-0.0829 -10.56812,-0.17395 z M 49.29486,232.77414 c -0.448606,-0.11654 -3.961743,-4.40128 -4.069704,-4.96355 -0.05121,-0.26671 -0.01994,-0.67739 0.0695,-0.91262 0.207689,-0.54626 37.046205,-31.27997 38.240438,-31.9033 1.579468,-0.82441 3.846646,-0.87818 5.535134,-0.13128 0.367192,0.16242 3.593341,2.7411 7.16922,5.73038 l 6.501592,5.43507 0.0425,-5.26603 c 0.0474,-5.87626 0.0521,-5.90204 1.14315,-6.2242 0.38178,-0.11273 2.39724,-0.15527 5.77782,-0.12195 l 5.19154,0.0512 0.44641,0.44658 0.44642,0.44658 0.0436,10.79156 0.0436,10.79157 5.72679,4.76954 c 3.50283,2.91734 5.78897,4.93313 5.88693,5.19078 0.30237,0.79531 0.0217,1.33405 -1.87469,3.59832 -1.55372,1.85514 -1.93663,2.22375 -2.40038,2.31075 -0.30347,0.0569 -0.70462,0.055 -0.89146,-0.004 -0.18683,-0.0593 -8.3257,-6.77131 -18.08638,-14.91559 -9.760672,-8.14428 -17.791323,-14.80778 -17.845888,-14.80778 -0.05456,0 -8.078612,6.65799 -17.831219,14.79553 -9.752606,8.13755 -17.85486,14.84268 -18.005008,14.9003 -0.29662,0.11382 -0.804455,0.11079 -1.259903,-0.008 z"
       id="path1140" />
  </g>
</svg>
