<?xml version="1.0" encoding="UTF-8" standalone="no"?>
<!-- Created with Inkscape (http://www.inkscape.org/) -->

<svg
   width="48.014774mm"
   height="47.968193mm"
   viewBox="0 0 48.014773 47.968191"
   version="1.1"
   id="svg5"
   inkscape:version="1.1.1 (3bf5ae0d25, 2021-09-20)"
   sodipodi:docname="music.svg"
   xmlns:inkscape="http://www.inkscape.org/namespaces/inkscape"
   xmlns:sodipodi="http://sodipodi.sourceforge.net/DTD/sodipodi-0.dtd"
   xmlns="http://www.w3.org/2000/svg"
   xmlns:svg="http://www.w3.org/2000/svg">
  <sodipodi:namedview
     id="namedview7"
     pagecolor="#aa82ce"
     bordercolor="#666666"
     borderopacity="1.0"
     inkscape:pageshadow="2"
     inkscape:pageopacity="0"
     inkscape:pagecheckerboard="0"
     inkscape:document-units="mm"
     showgrid="false"
     inkscape:zoom="1.1326108"
     inkscape:cx="-131.113"
     inkscape:cy="-42.821416"
     inkscape:window-width="2560"
     inkscape:window-height="1377"
     inkscape:window-x="1072"
     inkscape:window-y="468"
     inkscape:window-maximized="1"
     inkscape:current-layer="layer1"
     fit-margin-top="0"
     fit-margin-left="0"
     fit-margin-right="0"
     fit-margin-bottom="0" />
  <defs
     id="defs2" />
  <g
     inkscape:label="Layer 1"
     inkscape:groupmode="layer"
     id="layer1"
     transform="translate(-91.254335,-98.225483)">
    <path
       style="fill:#ffffff;fill-opacity:1;stroke-width:0.104562"
       d="m 23.963417,261.69362 c -0.712201,-0.32968 -1.12501,-1.20367 -0.908425,-1.92328 0.06491,-0.21566 0.578174,-1.07386 1.14059,-1.90711 0.941744,-1.39524 1.062107,-1.53119 1.52267,-1.7199 0.440478,-0.18047 0.558891,-0.18968 0.993336,-0.0772 0.880304,0.22784 1.402599,1.04386 1.236118,1.93127 -0.07837,0.41775 -1.98998,3.27421 -2.381933,3.55926 -0.354542,0.25783 -1.187473,0.32904 -1.602356,0.13699 z m 15.056894,0 c -0.712201,-0.32968 -1.125009,-1.20367 -0.908424,-1.92328 0.06491,-0.21566 0.578173,-1.07386 1.14059,-1.90711 0.941743,-1.39524 1.062107,-1.53119 1.522669,-1.7199 0.440479,-0.18047 0.558891,-0.18968 0.993337,-0.0772 0.880304,0.22784 1.402599,1.04386 1.236118,1.93127 -0.07837,0.41775 -1.989981,3.27421 -2.381934,3.55926 -0.354542,0.25783 -1.187472,0.32904 -1.602356,0.13699 z m 15.056895,0 c -0.712202,-0.32968 -1.125009,-1.20367 -0.908424,-1.92328 0.06491,-0.21566 0.578173,-1.07386 1.14059,-1.90711 0.941743,-1.39524 1.062107,-1.53119 1.522669,-1.7199 0.440479,-0.18047 0.558891,-0.18968 0.993337,-0.0772 0.880303,0.22784 1.402599,1.04386 1.236117,1.93127 -0.07837,0.41775 -1.98998,3.27421 -2.381933,3.55926 -0.354542,0.25783 -1.187473,0.32904 -1.602356,0.13699 z m -22.585342,-5.85546 c -0.712202,-0.32968 -1.125009,-1.20366 -0.908424,-1.92328 0.06491,-0.21566 0.578173,-1.07386 1.14059,-1.90711 0.941743,-1.39524 1.062107,-1.53119 1.522669,-1.71989 0.440479,-0.18048 0.558891,-0.18969 0.993337,-0.0772 0.880303,0.22784 1.402599,1.04386 1.236118,1.93128 -0.07837,0.41774 -1.989981,3.2742 -2.381934,3.55925 -0.354542,0.25783 -1.187473,0.32904 -1.602356,0.13699 z m 15.056895,0 c -0.712202,-0.32968 -1.12501,-1.20366 -0.908425,-1.92328 0.06491,-0.21566 0.578174,-1.07386 1.14059,-1.90711 0.941743,-1.39524 1.062107,-1.53119 1.52267,-1.71989 0.440479,-0.18048 0.558891,-0.18969 0.993336,-0.0772 0.880304,0.22784 1.402599,1.04386 1.236118,1.93128 -0.07837,0.41774 -1.989981,3.2742 -2.381934,3.55925 -0.354541,0.25783 -1.187472,0.32904 -1.602355,0.13699 z m -21.748848,-3.34598 c -0.712201,-0.32968 -1.12501,-1.20366 -0.908424,-1.92328 0.06491,-0.21565 0.578173,-1.07385 1.140589,-1.9071 0.941744,-1.39524 1.062107,-1.5312 1.52267,-1.7199 0.440479,-0.18048 0.558891,-0.18968 0.993336,-0.0772 0.880304,0.22784 1.4026,1.04386 1.236118,1.93128 -0.07837,0.41774 -1.98998,3.27421 -2.381933,3.55925 -0.354542,0.25784 -1.187473,0.32905 -1.602356,0.13699 z m 14.2204,0 c -0.712201,-0.32968 -1.125009,-1.20366 -0.908424,-1.92328 0.06491,-0.21565 0.578173,-1.07385 1.14059,-1.9071 0.941743,-1.39524 1.062107,-1.5312 1.522669,-1.7199 0.440479,-0.18048 0.558891,-0.18968 0.993337,-0.0772 0.880304,0.22784 1.402599,1.04386 1.236118,1.93128 -0.07837,0.41774 -1.989981,3.27421 -2.381934,3.55925 -0.354542,0.25784 -1.187472,0.32905 -1.602356,0.13699 z m 15.893389,0 c -0.712202,-0.32968 -1.125009,-1.20366 -0.908424,-1.92328 0.06491,-0.21565 0.578173,-1.07385 1.14059,-1.9071 0.941743,-1.39524 1.062107,-1.5312 1.522669,-1.7199 0.440479,-0.18048 0.558891,-0.18968 0.993337,-0.0772 0.880303,0.22784 1.402599,1.04386 1.236118,1.93128 -0.07837,0.41774 -1.989981,3.27421 -2.381934,3.55925 -0.354542,0.25784 -1.187473,0.32905 -1.602356,0.13699 z m -27.463433,-9.16719 c -4.309903,-0.50993 -8.112714,-3.51866 -9.595029,-7.59145 -0.501967,-1.3792 -0.675837,-2.43341 -0.670299,-4.06417 0.0077,-2.27778 0.50835,-4.10138 1.6333,-5.94965 2.287204,-3.75784 6.457596,-5.94898 10.75861,-5.65262 l 1.012714,0.0698 0.06732,-0.4029 c 0.910574,-5.45005 4.747194,-9.67572 9.984141,-10.99658 3.668384,-0.92523 7.483049,-0.25627 10.717581,1.87951 1.049318,0.69287 2.871927,2.50668 3.555527,3.53836 1.028276,1.55186 1.758478,3.31718 2.09101,5.05517 0.08615,0.45027 0.156655,0.82631 0.156672,0.83563 1.7e-5,0.009 0.811678,0.0206 1.803691,0.0251 1.596086,0.007 1.920016,0.0394 2.814723,0.27938 4.257189,1.14209 7.38812,4.27302 8.530208,8.53021 0.239923,0.89433 0.271921,1.2163 0.277138,2.78862 0.005,1.50614 -0.02972,1.91868 -0.227389,2.70186 -1.112729,4.4088 -4.261761,7.57722 -8.716563,8.77022 l -0.874458,0.23418 -16.311636,0.0158 c -8.971399,0.009 -16.624665,-0.0212 -17.007256,-0.0665 z"
       id="path1690" />
    <path
       style="fill:#000000;stroke-width:0.104562"
       id="path1159"
       d="" />
    <path
       style="fill:#000000;stroke-width:0.104562"
       id="path1085"
       d="" />
    <path
       style="fill:#ffffff;fill-opacity:1;stroke-width:0.104562"
       d="m 98.243997,260.51218 c -0.190951,-0.0974 -0.473268,-0.34231 -0.627371,-0.54435 -0.22719,-0.29786 -0.280186,-0.47868 -0.280186,-0.95597 0,-0.57197 0.02958,-0.63273 1.045618,-2.14732 0.575089,-0.85728 1.178463,-1.65475 1.34083,-1.77215 0.459792,-0.33247 1.386962,-0.29862 1.867862,0.0682 0.49844,0.38018 0.74999,0.93293 0.68539,1.50607 -0.0392,0.34771 -0.2786,0.79586 -1.0447,1.9556 -0.54662,0.82748 -1.14681,1.61343 -1.333746,1.74654 -0.443295,0.31566 -1.189014,0.38032 -1.653697,0.1434 z m 15.056893,0 c -0.19095,-0.0974 -0.47327,-0.34231 -0.62737,-0.54435 -0.22719,-0.29786 -0.28019,-0.47868 -0.28019,-0.95597 0,-0.57197 0.0296,-0.63273 1.04562,-2.14732 0.57509,-0.85728 1.17846,-1.65475 1.34083,-1.77215 0.45979,-0.33247 1.38697,-0.29862 1.86787,0.0682 0.49844,0.38018 0.74998,0.93293 0.68538,1.50607 -0.0392,0.34771 -0.27859,0.79586 -1.0447,1.9556 -0.54662,0.82748 -1.1468,1.61343 -1.33374,1.74654 -0.4433,0.31566 -1.18902,0.38032 -1.6537,0.1434 z m 15.05689,0 c -0.19095,-0.0974 -0.47326,-0.34231 -0.62737,-0.54435 -0.22719,-0.29786 -0.28018,-0.47868 -0.28018,-0.95597 0,-0.57197 0.0296,-0.63273 1.04561,-2.14732 0.57509,-0.85728 1.17847,-1.65475 1.34083,-1.77215 0.4598,-0.33247 1.38697,-0.29862 1.86787,0.0682 0.49844,0.38018 0.74999,0.93293 0.68539,1.50607 -0.0392,0.34771 -0.2786,0.79586 -1.0447,1.9556 -0.54662,0.82748 -1.14681,1.61343 -1.33375,1.74654 -0.44329,0.31566 -1.18901,0.38032 -1.6537,0.1434 z m -22.58534,-5.85546 c -0.19095,-0.0974 -0.47327,-0.34231 -0.62737,-0.54435 -0.22719,-0.29786 -0.28018,-0.47868 -0.28018,-0.95597 0,-0.57197 0.0296,-0.63272 1.04561,-2.14732 0.57509,-0.85728 1.17847,-1.65475 1.34083,-1.77215 0.45979,-0.33246 1.38697,-0.29862 1.86787,0.0682 0.49844,0.38018 0.74999,0.93293 0.68539,1.50607 -0.0392,0.34771 -0.2786,0.79586 -1.0447,1.9556 -0.54662,0.82748 -1.14681,1.61343 -1.33375,1.74654 -0.4433,0.31566 -1.18901,0.38032 -1.6537,0.1434 z m 15.0569,0 c -0.19095,-0.0974 -0.47327,-0.34231 -0.62737,-0.54435 -0.22719,-0.29786 -0.28019,-0.47868 -0.28019,-0.95597 0,-0.57197 0.0296,-0.63272 1.04562,-2.14732 0.57509,-0.85728 1.17846,-1.65475 1.34083,-1.77215 0.45979,-0.33246 1.38696,-0.29862 1.86787,0.0682 0.49844,0.38018 0.74998,0.93293 0.68538,1.50607 -0.0392,0.34771 -0.2786,0.79586 -1.0447,1.9556 -0.54662,0.82748 -1.1468,1.61343 -1.33375,1.74654 -0.44329,0.31566 -1.18901,0.38032 -1.65369,0.1434 z m -21.748849,-3.34597 c -0.190951,-0.0974 -0.473268,-0.34232 -0.62737,-0.54436 -0.227191,-0.29786 -0.280187,-0.47868 -0.280187,-0.95597 0,-0.57197 0.02958,-0.63272 1.045618,-2.14731 0.575089,-0.85728 1.178458,-1.65475 1.340828,-1.77216 0.45979,-0.33246 1.38697,-0.29862 1.86787,0.0682 0.49844,0.38018 0.74998,0.93293 0.68538,1.50607 -0.0392,0.34771 -0.27859,0.79586 -1.0447,1.9556 -0.54662,0.82749 -1.1468,1.61343 -1.33374,1.74655 -0.4433,0.31565 -1.189016,0.38032 -1.653699,0.1434 z m 14.220399,0 c -0.19095,-0.0974 -0.47327,-0.34232 -0.62737,-0.54436 -0.22719,-0.29786 -0.28019,-0.47868 -0.28019,-0.95597 0,-0.57197 0.0296,-0.63272 1.04562,-2.14731 0.57509,-0.85728 1.17846,-1.65475 1.34083,-1.77216 0.45979,-0.33246 1.38697,-0.29862 1.86787,0.0682 0.49844,0.38018 0.74998,0.93293 0.68538,1.50607 -0.0392,0.34771 -0.27859,0.79586 -1.0447,1.9556 -0.54662,0.82749 -1.1468,1.61343 -1.33374,1.74655 -0.4433,0.31565 -1.18902,0.38032 -1.6537,0.1434 z m 15.89339,0 c -0.19095,-0.0974 -0.47327,-0.34232 -0.62737,-0.54436 -0.22719,-0.29786 -0.28019,-0.47868 -0.28019,-0.95597 0,-0.57197 0.0296,-0.63272 1.04562,-2.14731 0.57509,-0.85728 1.17846,-1.65475 1.34083,-1.77216 0.45979,-0.33246 1.38697,-0.29862 1.86787,0.0682 0.49844,0.38018 0.74998,0.93293 0.68538,1.50607 -0.0392,0.34771 -0.2786,0.79586 -1.0447,1.9556 -0.54662,0.82749 -1.1468,1.61343 -1.33374,1.74655 -0.4433,0.31565 -1.18902,0.38032 -1.6537,0.1434 z m -27.30941,-9.098 c -1.64809,-0.25545 -2.786374,-0.59734 -3.97334,-1.19342 -3.241481,-1.62782 -5.496742,-4.60631 -6.290297,-8.3075 -0.173238,-0.80799 -0.174035,-3.47355 -0.0013,-4.28703 1.027116,-4.83661 4.525186,-8.33527 9.376147,-9.37774 0.35897,-0.0771 1.32712,-0.13537 2.26301,-0.1361 l 1.63565,-10e-4 0.17394,-0.88878 c 0.80338,-4.10484 3.48414,-7.61605 7.2623,-9.51204 1.59326,-0.79953 4.0165,-1.36238 5.86551,-1.36238 1.84901,0 4.27225,0.56285 5.86551,1.36238 1.20503,0.60472 2.39172,1.44867 3.37624,2.40109 2.05058,1.98375 3.34681,4.35568 3.88606,7.11095 l 0.17394,0.88878 1.63565,10e-4 c 0.94686,7.4e-4 1.89983,0.0586 2.26301,0.13737 4.8672,1.05578 8.33438,4.52355 9.37487,9.37648 0.0746,0.34799 0.13451,1.30253 0.13451,2.14351 0,0.84099 -0.0599,1.79552 -0.13451,2.14352 -1.02337,4.77305 -4.27699,8.1045 -9.11346,9.33147 -0.61555,0.15616 -2.22817,0.17419 -17.09585,0.1912 -9.02891,0.0103 -16.53383,5.2e-4 -16.67761,-0.0217 z m 33.50828,-3.52683 c 2.98356,-0.90479 5.16985,-3.11138 5.97693,-6.03242 0.25957,-0.93948 0.25957,-3.23089 0,-4.17037 -0.81432,-2.94724 -3.08954,-5.22207 -6.03149,-6.03046 -1.03613,-0.28471 -3.13527,-0.26542 -4.25207,0.0391 -1.08163,0.29491 -1.62543,0.29876 -2.08492,0.0148 -0.55518,-0.34312 -0.76716,-0.86978 -0.76716,-1.90599 0,-1.14172 -0.23233,-2.44843 -0.63145,-3.55143 -0.94948,-2.62403 -3.30117,-4.97571 -5.92519,-5.9252 -3.75694,-1.35942 -7.73015,-0.47807 -10.548,2.33978 -1.94731,1.94731 -2.97122,4.40673 -2.97122,7.13685 0,1.03621 -0.21198,1.56287 -0.76716,1.90599 -0.45949,0.28398 -1.00329,0.28013 -2.08492,-0.0148 -1.1168,-0.30449 -3.21594,-0.32378 -4.25207,-0.0391 -2.941946,0.80839 -5.217168,3.08322 -6.031484,6.03046 -0.259577,0.93948 -0.259577,3.23089 0,4.17037 0.900404,3.25881 3.671617,5.74624 6.914214,6.20615 0.17252,0.0245 7.63039,0.038 16.57304,0.0299 15.36226,-0.0138 16.29376,-0.025 16.88295,-0.20367 z"
       id="path872" />
    <path
       style="fill:#ffffff;fill-opacity:1;stroke-width:0.10514"
       d="m 95.735942,203.26957 c -0.558396,-0.24818 -0.998829,-0.88972 -0.998829,-1.4549 0,-0.38926 0.4039,-1.07497 0.760031,-1.29033 0.324755,-0.19638 0.598272,-0.21091 4.903926,-0.26055 l 4.55999,-0.0526 -0.77495,-0.4933 c -3.934,-2.50421 -7.190673,-6.78928 -8.546145,-11.24485 -0.774079,-2.54448 -0.924526,-4.28413 -0.882299,-10.20222 0.03098,-4.342 0.03903,-4.49653 0.248793,-4.77737 0.119227,-0.15962 0.34743,-0.38777 0.507117,-0.507 l 0.29034,-0.21677 20.678764,-0.0271 c 19.98268,-0.0262 20.69104,-0.0205 21.04318,0.16837 0.62462,0.33499 0.78709,0.6565 0.82821,1.63894 l 0.0365,0.87131 1.5932,0.0581 c 2.72344,0.0994 4.29795,0.73103 5.9565,2.38958 1.61365,1.61365 2.33418,3.34055 2.34698,5.62499 0.006,0.99816 -0.0413,1.43278 -0.22457,2.08087 -0.81197,2.87156 -3.01131,5.03581 -5.84541,5.75213 -0.7179,0.18145 -1.17938,0.2102 -3.37405,0.2102 h -2.5424 l -0.29549,0.55198 c -1.58269,2.95649 -4.2393,5.82194 -7.15029,7.71238 l -0.63084,0.40968 4.57839,0.0526 c 4.1828,0.048 4.60338,0.069 4.86774,0.24228 0.49936,0.32739 0.71704,0.78781 0.67043,1.41803 -0.0473,0.63981 -0.2816,1.01401 -0.81342,1.29923 -0.34979,0.18759 -1.10924,0.19451 -20.91946,0.19054 -16.896022,-0.003 -20.612655,-0.0291 -20.871908,-0.1443 z m 23.551338,-3.22512 c 4.07451,-0.58577 7.64149,-2.2946 10.48561,-5.02335 2.47719,-2.3767 3.97343,-4.83458 4.85777,-7.97987 0.47734,-1.69774 0.58531,-3.04168 0.58531,-7.2851 v -3.8848 H 116.54093 97.865893 l 0.05397,4.28445 c 0.0566,4.49289 0.109346,5.08292 0.622725,6.96552 1.480512,5.42918 5.961692,10.08779 11.544952,12.00207 1.71224,0.58706 3.32232,0.91739 5.25699,1.07855 0.70685,0.0589 3.10368,-0.0368 3.94275,-0.15747 z m 22.41171,-11.85311 c 1.42998,-0.44639 2.64816,-1.59652 3.14259,-2.96704 0.84774,-2.34991 -0.19606,-4.96079 -2.41558,-6.04216 -0.85353,-0.41584 -1.70343,-0.57524 -3.07313,-0.57637 l -0.96238,-8.5e-4 -0.0479,3.23306 c -0.0494,3.33347 -0.13107,4.12275 -0.60412,5.83526 l -0.19604,0.70969 h 1.77131 c 1.41926,0 1.89333,-0.0381 2.38523,-0.19164 z m -35.62582,-20.41379 c -0.4068,-0.12277 -0.61659,-0.29265 -1.23591,-1.00082 -1.22176,-1.39702 -1.82862,-2.87634 -1.8331,-4.46844 -0.005,-1.7661 0.60478,-2.97659 2.34102,-4.64745 0.57552,-0.55385 1.15201,-1.21327 1.28109,-1.46539 0.52158,-1.01872 0.17637,-2.32878 -0.94923,-3.6024 -0.78998,-0.89385 -0.89151,-1.26034 -0.57105,-2.06125 0.19473,-0.48669 0.86009,-0.94693 1.36346,-0.94313 0.51959,0.004 1.13759,0.36421 1.63983,0.95602 2.2134,2.60811 2.55209,5.38311 0.94459,7.73937 -0.22783,0.33395 -0.86293,1.03457 -1.41133,1.55694 -0.5546,0.52827 -1.10391,1.15818 -1.23779,1.41939 -0.52602,1.02637 -0.18525,2.32401 0.94175,3.58618 0.29131,0.32625 0.57775,0.71966 0.63652,0.87425 0.28157,0.74057 -0.0654,1.60038 -0.78681,1.94959 -0.46169,0.2235 -0.67123,0.24349 -1.12304,0.10714 z m 9.97109,-0.0502 c -0.47953,-0.17098 -0.77669,-0.43265 -1.38642,-1.22084 -1.14477,-1.47985 -1.68899,-3.01581 -1.59872,-4.51211 0.0984,-1.63096 0.69936,-2.73501 2.37736,-4.36755 1.31017,-1.27467 1.53232,-1.67899 1.46185,-2.66061 -0.0605,-0.84307 -0.3045,-1.35872 -1.06961,-2.26062 -0.70986,-0.83678 -0.79961,-1.00969 -0.79961,-1.54046 0,-1.00838 0.85905,-1.71718 1.85478,-1.53038 0.65831,0.1235 1.87777,1.441 2.53406,2.7378 0.9825,1.94136 0.90586,4.0865 -0.207,5.79376 -0.1845,0.28305 -0.83907,1.01142 -1.45461,1.6186 -1.34229,1.32408 -1.5098,1.60317 -1.51458,2.52336 -0.004,0.85132 0.31627,1.55245 1.14015,2.49281 0.6382,0.72843 0.855,1.23639 0.75506,1.76911 -0.0847,0.45179 -0.52465,0.98079 -0.97049,1.16708 -0.42151,0.17612 -0.60492,0.17449 -1.12222,-0.01 z m 10.14636,0.0534 c -0.92319,-0.23046 -2.48078,-2.42606 -2.91261,-4.10564 -0.2542,-0.98874 -0.16829,-2.45944 0.19535,-3.34426 0.38715,-0.94201 1.06536,-1.839 2.10326,-2.78174 1.14442,-1.03951 1.49397,-1.67945 1.41188,-2.58481 -0.0693,-0.76413 -0.43588,-1.49671 -1.19927,-2.39659 -0.32827,-0.38695 -0.62574,-0.85469 -0.67089,-1.05491 -0.24371,-1.08058 0.74132,-2.0877 1.84028,-1.88153 0.97532,0.18297 2.59054,2.37119 3.04359,4.12329 0.20325,0.78601 0.21399,2.00795 0.0239,2.71846 -0.32386,1.21059 -1.0211,2.23231 -2.39328,3.50709 -0.49709,0.46181 -0.94371,0.98628 -1.09629,1.28739 -0.53662,1.05896 -0.23298,2.20662 0.95398,3.60574 0.54399,0.64123 0.61873,0.78526 0.65892,1.26989 0.0963,1.16177 -0.81455,1.92328 -1.95884,1.63762 z"
       id="path884" />
    <path
       style="fill:#ffffff;fill-opacity:1;stroke-width:0.10514"
       d="m 21.12898,204.05971 c -0.558396,-0.24818 -0.998829,-0.88972 -0.998829,-1.4549 0,-0.38926 0.4039,-1.07497 0.760031,-1.29033 0.324755,-0.19638 0.598272,-0.21091 4.903927,-0.26055 l 4.55999,-0.0526 -0.774953,-0.4933 c -3.933999,-2.50421 -7.190671,-6.78928 -8.546143,-11.24485 -0.774079,-2.54448 -0.924526,-4.28413 -0.882299,-10.20222 0.03098,-4.342 0.03903,-4.49653 0.248793,-4.77737 0.119227,-0.15962 0.34743,-0.38777 0.507117,-0.507 l 0.29034,-0.21677 20.678767,-0.0271 c 19.982681,-0.0262 20.691033,-0.0205 21.043178,0.16837 0.200427,0.10749 0.460561,0.32426 0.578076,0.48171 0.208523,0.27939 0.213663,0.42078 0.213663,5.87717 0,5.83003 -0.0099,5.99295 -0.489045,8.03902 -1.155864,4.93595 -4.511341,9.60793 -8.973546,12.49425 l -0.630839,0.40805 4.578386,0.0526 c 4.182806,0.048 4.603386,0.069 4.86774,0.24228 0.499367,0.32739 0.717044,0.78781 0.670431,1.41803 -0.04732,0.63981 -0.2816,1.01401 -0.813419,1.29923 -0.349789,0.18759 -1.109241,0.19451 -20.919456,0.19054 -16.896024,-0.003 -20.612657,-0.0291 -20.87191,-0.1443 z m 44.106186,-11.7967 c 0,-0.0354 0.160002,-0.49667 0.35556,-1.02511 0.195559,-0.52845 0.416868,-1.20708 0.4918,-1.50809 0.134785,-0.54143 0.141735,-0.54845 0.650887,-0.65764 1.586102,-0.34016 3.111595,-1.71149 3.568608,-3.20796 0.724023,-2.3708 -0.322019,-4.82914 -2.516276,-5.9136 l -0.7632,-0.3772 v -1.6025 -1.6025 l 0.436157,0.098 c 2.605745,0.58548 4.834231,2.56344 5.766678,5.11841 1.627838,4.46038 -0.985452,9.36216 -5.615099,10.53231 -0.770151,0.19465 -2.375115,0.29324 -2.375115,0.14589 z m -33.76896,-23.69532 c -0.406799,-0.12277 -0.616588,-0.29265 -1.235911,-1.00082 -1.221758,-1.39702 -1.828621,-2.87634 -1.833098,-4.46844 -0.005,-1.7661 0.604785,-2.97659 2.34102,-4.64745 0.575519,-0.55385 1.152011,-1.21327 1.281096,-1.46539 0.521572,-1.01872 0.176369,-2.32878 -0.949235,-3.6024 -0.78998,-0.89385 -0.891512,-1.26034 -0.571051,-2.06125 0.194733,-0.48669 0.86009,-0.94693 1.36346,-0.94313 0.519588,0.004 1.13759,0.36421 1.639829,0.95602 2.213402,2.60811 2.552088,5.38311 0.944587,7.73937 -0.227827,0.33395 -0.862925,1.03457 -1.411328,1.55694 -0.554598,0.52827 -1.103911,1.15818 -1.237785,1.41939 -0.526021,1.02637 -0.185253,2.32401 0.941746,3.58618 0.291316,0.32625 0.577752,0.71966 0.636524,0.87425 0.281567,0.74057 -0.06543,1.60038 -0.786812,1.94959 -0.461691,0.2235 -0.671232,0.24349 -1.123042,0.10714 z m 9.971091,-0.0502 c -0.47953,-0.17098 -0.776693,-0.43265 -1.386416,-1.22084 -1.144777,-1.47985 -1.688997,-3.01581 -1.598721,-4.51211 0.0984,-1.63096 0.699361,-2.73501 2.377358,-4.36755 1.310171,-1.27467 1.532317,-1.67899 1.461851,-2.66061 -0.06052,-0.84307 -0.304501,-1.35872 -1.069606,-2.26062 -0.70986,-0.83678 -0.799612,-1.00969 -0.799612,-1.54046 0,-1.00838 0.859042,-1.71718 1.854774,-1.53038 0.658314,0.1235 1.877772,1.441 2.534064,2.7378 0.997499,1.971 0.90357,4.1383 -0.253956,5.85976 -0.2048,0.30457 -0.858397,1.0269 -1.452439,1.60517 -1.292303,1.25799 -1.465009,1.54832 -1.469791,2.47079 -0.0044,0.85132 0.316268,1.55245 1.140149,2.49281 0.638195,0.72843 0.854996,1.23639 0.755058,1.76911 -0.08476,0.45179 -0.524651,0.98079 -0.97049,1.16708 -0.421514,0.17612 -0.604924,0.17449 -1.122223,-0.01 z m 10.146362,0.0534 c -0.923189,-0.23046 -2.480781,-2.42606 -2.912607,-4.10564 -0.254207,-0.98874 -0.168299,-2.45944 0.195347,-3.34426 0.38715,-0.94201 1.065361,-1.839 2.103261,-2.78174 1.144422,-1.03951 1.493971,-1.67945 1.411874,-2.58481 -0.06929,-0.76413 -0.435875,-1.49671 -1.19927,-2.39659 -0.328265,-0.38695 -0.625733,-0.85469 -0.670888,-1.05491 -0.243712,-1.08058 0.741322,-2.0877 1.840284,-1.88153 0.975313,0.18297 2.590543,2.37119 3.043592,4.12329 0.203242,0.78601 0.21399,2.00795 0.02391,2.71846 -0.323861,1.21059 -1.021092,2.23231 -2.393273,3.50709 -0.497089,0.46181 -0.943717,0.98628 -1.096297,1.28739 -0.536616,1.05896 -0.232977,2.20662 0.953985,3.60574 0.54399,0.64123 0.618725,0.78526 0.658914,1.26989 0.09634,1.16177 -0.814541,1.92328 -1.958834,1.63762 z"
       id="path984" />
    <path
       style="fill:#ffffff;fill-opacity:1;stroke-width:0.0937821"
       d="m 98.333265,146.09155 c -2.781466,-0.40082 -5.369005,-2.0728 -6.411481,-4.1429 -0.367037,-0.72884 -0.669573,-1.9032 -0.667438,-2.59079 0.0044,-1.41439 0.624435,-2.90933 1.683292,-4.05846 2.678097,-2.90643 7.627682,-3.65175 11.435812,-1.72202 0.25929,0.13139 0.49394,0.23889 0.52145,0.23889 0.0275,0 0.0502,-6.86836 0.0505,-15.26303 3.7e-4,-10.74502 0.0309,-15.37408 0.10299,-15.63817 0.14074,-0.51524 0.46594,-0.91755 0.89536,-1.10764 0.45026,-0.19933 31.40469,-3.671362 31.91863,-3.580182 0.50243,0.0891 0.98587,0.45461 1.20781,0.91308 l 0.19892,0.41093 -0.002,18.422002 c -0.002,20.52915 0.0446,19.10027 -0.66573,20.51164 -1.29831,2.57974 -4.39784,4.24067 -7.9137,4.24067 -2.66017,0 -4.96314,-0.88239 -6.61163,-2.53327 -1.15052,-1.15218 -1.64616,-2.08276 -1.87768,-3.52544 -0.47518,-2.96096 1.76474,-5.96186 5.30072,-7.10153 1.14238,-0.36819 1.85453,-0.47314 3.18859,-0.4699 1.76024,0.004 3.04701,0.30543 4.55267,1.06548 l 0.55846,0.28191 v -10.04028 -10.04029 l -0.3048,0.0507 c -0.16763,0.0279 -6.23416,0.70603 -13.48117,1.50698 -7.24701,0.80095 -13.27037,1.47694 -13.38524,1.50219 l -0.20885,0.0459 -0.026,13.43304 c -0.029,15.01828 0.032,13.69243 -0.69425,15.08227 -1.52092,2.91072 -5.51565,4.66299 -9.365649,4.10819 z m 3.001025,-3.49724 c 1.2129,-0.26874 2.18039,-0.78311 2.86027,-1.52069 1.04498,-1.13368 0.99889,-2.49246 -0.1226,-3.61394 -2.04143,-2.04143 -6.450044,-2.0322 -8.500037,0.0178 -1.189986,1.18998 -1.143325,2.63337 0.123645,3.82477 0.600291,0.56449 1.613003,1.07721 2.520398,1.27604 0.759686,0.16646 2.401264,0.17489 3.118324,0.016 z m 31.13565,-3.49053 c 1.3856,-0.3525 2.72963,-1.30332 3.1496,-2.22814 0.43643,-0.96106 0.12242,-2.10161 -0.81428,-2.95771 -2.0719,-1.8936 -6.1022,-1.89227 -8.22831,0.003 -0.72727,0.6482 -1.03479,1.2981 -0.98229,2.07593 0.0495,0.7335 0.26644,1.18973 0.83699,1.76029 1.34268,1.34268 3.85352,1.90276 6.03829,1.34694 z m -9.91562,-30.69461 13.198,-1.4661 0.025,-2.55325 c 0.0214,-2.1902 0.005,-2.55323 -0.11231,-2.55323 -0.0755,0 -6.18447,0.67522 -13.5755,1.5005 -7.39103,0.82528 -13.49142,1.50052 -13.55643,1.50052 -0.0922,0 -0.11819,0.5662 -0.11819,2.57458 v 2.57459 l 0.47074,-0.0558 c 0.25891,-0.0307 6.40984,-0.7155 13.66874,-1.52185 z"
       id="path1362" />
    <path
       style="fill:#ffffff;fill-opacity:1;stroke-width:0.0937821"
       d="m 24.581925,147.02412 c -2.781466,-0.40082 -5.369005,-2.07281 -6.411481,-4.1429 -0.367037,-0.72884 -0.669573,-1.9032 -0.667438,-2.59079 0.0044,-1.41439 0.624435,-2.90933 1.683292,-4.05847 2.678097,-2.90643 7.627677,-3.65174 11.435807,-1.72201 0.25929,0.13139 0.49394,0.23889 0.52145,0.23889 0.0275,0 0.0502,-6.86837 0.0505,-15.26303 3.8e-4,-10.74502 0.0309,-15.37408 0.10299,-15.63816 0.14074,-0.51525 0.46594,-0.91755 0.89536,-1.10766 0.45026,-0.19933 31.4047,-3.671357 31.91864,-3.580176 0.50242,0.08914 0.98586,0.454612 1.2078,0.913086 l 0.19893,0.41092 -0.002,18.42201 c -0.002,20.52915 0.0446,19.10027 -0.66574,20.51164 -1.2983,2.57974 -4.39784,4.24067 -7.91369,4.24067 -1.87534,0 -3.46851,-0.41394 -5.07515,-1.31865 -0.87181,-0.49091 -2.174,-1.74101 -2.63952,-2.53393 -1.39246,-2.37175 -1.00718,-5.14194 0.99838,-7.17852 2.75682,-2.79946 7.48624,-3.44307 11.26896,-1.53356 l 0.55845,0.28191 V 121.3351 111.29482 l -0.30479,0.0506 c -0.16764,0.0278 -6.23416,0.70617 -13.48117,1.50747 -7.24701,0.80129 -13.27037,1.47733 -13.38524,1.50232 l -0.20885,0.0454 -0.026,13.43304 c -0.0248,12.80551 -0.0341,13.45713 -0.20027,13.94884 -0.64798,1.91781 -1.95148,3.34653 -3.93681,4.315 -1.79286,0.87458 -3.94616,1.21146 -5.92282,0.92662 z"
       id="path1262" />
    <path
       style="fill:#ffffff;fill-opacity:1;stroke:#ffffff;stroke-width:1.125;stroke-miterlimit:4;stroke-dasharray:none;stroke-opacity:1"
       d="m 103.77542,90.818786 c -0.36756,-0.169249 -0.59799,-0.389185 -0.77853,-0.743063 -0.23423,-0.459138 -0.25644,-0.724174 -0.25644,-3.061191 v -2.558534 h -7.837999 -7.838003 l -0.387725,-0.326249 c -0.780766,-0.656972 -0.957899,-1.523162 -0.49645,-2.427677 0.140811,-0.276011 1.434484,-2.60698 2.874828,-5.179931 1.440345,-2.572951 2.646208,-4.749492 2.679695,-4.83676 0.04582,-0.119395 -0.216251,-0.169521 -1.058772,-0.202518 -0.989652,-0.03876 -1.158337,-0.08001 -1.452776,-0.355261 -0.528793,-0.494336 -0.717864,-0.965017 -0.654122,-1.628398 0.0522,-0.543222 0.348889,-0.992335 3.696629,-5.59572 2.001932,-2.752804 3.670251,-5.08425 3.707375,-5.180995 0.05241,-0.136573 -0.06776,-0.176002 -0.53751,-0.176363 -1.371199,-9.97e-4 -2.2714,-1.280876 -1.755129,-2.495278 0.100897,-0.237336 1.704206,-2.660404 3.562909,-5.384593 1.858702,-2.724189 3.37946,-4.973231 3.37946,-4.997871 0,-0.02464 -0.28084,-0.07178 -0.624085,-0.104765 -0.364929,-0.03507 -0.734152,-0.158031 -0.889144,-0.296119 -0.388678,-0.34629 -0.62558,-0.992924 -0.536916,-1.465541 0.0785,-0.418472 6.725605,-9.589187 7.343535,-10.131564 0.4526,-0.397259 1.08585,-0.481701 1.73972,-0.231988 0.50113,0.191385 0.75341,0.490899 3.13393,3.720663 4.95371,6.720957 4.65613,6.284403 4.65613,6.830491 0,0.972917 -0.61443,1.602328 -1.5642,1.602328 -0.32072,0 -0.43724,0.04754 -0.39383,0.160668 0.0339,0.08837 1.58125,2.394096 3.43854,5.123843 1.85729,2.729745 3.4323,5.168953 3.50003,5.420461 0.12261,0.45536 0.0444,0.957584 -0.22836,1.467342 -0.22965,0.42911 -0.79709,0.713741 -1.55617,0.780585 l -0.72776,0.06409 2.44472,3.36324 c 1.3446,1.849782 2.49466,3.380514 2.55568,3.401625 0.061,0.02111 0.25628,-0.175078 0.43389,-0.435975 l 0.32294,-0.474361 -0.40695,-0.07036 c -1.02841,-0.177808 -1.61552,-1.02839 -1.34967,-1.95535 0.0608,-0.211891 1.26476,-2.079878 2.67554,-4.151083 l 2.56505,-3.765828 -0.48195,-0.215775 c -0.62047,-0.277795 -0.88865,-0.670669 -0.88865,-1.301851 0,-0.462655 0.23234,-0.821341 2.74555,-4.238617 1.51005,-2.053254 2.88978,-3.840627 3.06606,-3.971939 0.36294,-0.270346 1.20111,-0.319461 1.62059,-0.09496 0.29818,0.159582 5.44085,7.039589 5.80969,7.772367 0.19437,0.386156 0.20996,0.533077 0.0939,0.884775 -0.16198,0.490816 -0.55054,0.879479 -1.03391,1.03419 l -0.34143,0.109278 2.50856,3.674652 c 1.37971,2.021058 2.59308,3.885388 2.69637,4.142955 0.3643,0.908385 -0.20576,1.883843 -1.20225,2.057243 l -0.51898,0.09031 2.79056,3.835952 c 1.53481,2.109771 2.8237,3.959553 2.86421,4.110626 0.12399,0.46244 0.0869,0.758482 -0.15057,1.201229 -0.28769,0.536439 -0.92017,0.879632 -1.62109,0.879632 -0.43241,0 -0.52993,0.03842 -0.47314,0.186409 0.0393,0.102526 1.02628,1.891548 2.1932,3.975604 1.50779,2.692821 2.12168,3.903908 2.12168,4.185661 0,0.512051 -0.33359,1.210785 -0.6702,1.403802 -0.19291,0.110614 -1.89147,0.168175 -6.30541,0.21368 l -6.04138,0.06228 -0.0623,2.821084 c -0.0691,3.12848 -0.0821,3.176758 -0.96137,3.548896 -0.56172,0.23775 -4.36658,0.23775 -4.9283,0 -0.87923,-0.372139 -0.89231,-0.420409 -0.96138,-3.548893 l -0.0623,-2.821087 -8.80406,-0.03197 -8.80407,-0.03197 -0.04,2.670182 c -0.0439,2.928387 -0.0585,2.987444 -0.89732,3.614291 -0.32073,0.239693 -0.53626,0.258946 -3.23097,0.288606 -2.62917,0.02894 -2.93401,0.01029 -3.40942,-0.208626 z m 5.92819,-1.427492 c 0.0988,-0.119044 0.1322,-0.894121 0.10868,-2.52243 l -0.0339,-2.350584 -2.77156,-0.03352 -2.77156,-0.03352 v 2.472911 c 0,1.360102 0.0374,2.510282 0.083,2.555954 0.0457,0.04567 1.24397,0.08304 2.66288,0.08304 2.04115,0 2.60963,-0.03588 2.72246,-0.171847 z m 24.7385,-2.381725 V 84.51828 l -1.96189,-0.0343 -1.96189,-0.03431 v 2.559898 2.559898 l 1.96189,-0.03431 1.96189,-0.0343 z m -18.49782,-4.213851 c 0,-0.159538 1.00448,-2.093401 2.23219,-4.297473 l 2.23219,-4.007403 h -0.56289 c -0.84879,0 -1.39857,-0.315726 -1.68762,-0.969158 -0.1615,-0.365107 -0.2181,-0.683459 -0.1677,-0.943203 0.044,-0.226781 0.8891,-1.507839 2.0045,-3.038578 1.06063,-1.455573 1.92842,-2.702926 1.92842,-2.771897 0,-0.06897 -1.31762,-1.932989 -2.92805,-4.142266 -1.61042,-2.209276 -2.96434,-4.153117 -3.0087,-4.319646 -0.10042,-0.376994 0.17112,-0.885889 0.58424,-1.094933 0.16997,-0.086 0.76161,-0.156491 1.32198,-0.157506 1.28434,-0.0023 1.36739,-0.136044 0.69062,-1.11201 -3.97068,-5.726128 -7.1235,-10.497954 -7.1235,-10.781477 0,-0.758863 0.50433,-1.063053 1.76249,-1.063053 0.40084,0 0.7288,-0.03313 0.7288,-0.07361 0,-0.179383 -6.79932,-9.268722 -6.93351,-9.268722 -0.0825,0 -1.69175,2.088012 -3.57607,4.640026 l -3.42605,4.640026 1.00421,0.06775 c 0.91054,0.06143 1.03288,0.101089 1.31163,0.425157 0.23172,0.269387 0.28968,0.446166 0.23535,0.717821 -0.0397,0.19823 -1.75721,2.83076 -3.816803,5.850067 -2.059594,3.019307 -3.727406,5.580607 -3.706247,5.691778 0.03092,0.162446 0.258319,0.215252 1.158301,0.268977 0.615906,0.03677 1.248634,0.138269 1.406062,0.225561 0.34425,0.190883 0.560613,0.702153 0.447698,1.057916 -0.04515,0.142243 -1.868329,2.708435 -4.051517,5.702649 -2.183189,2.994216 -3.969434,5.521786 -3.969434,5.616825 0,0.38924 0.296897,0.47175 1.697492,0.47175 1.362497,0 1.405191,0.0085 1.656708,0.32821 0.47833,0.608097 0.723495,0.06316 -3.123343,6.94239 -1.56569,2.799898 -2.84671,5.156969 -2.84671,5.237936 0,0.446442 -0.0089,0.446167 14.412103,0.446167 h 14.11316 z m 31.45222,0.165995 c 0.0422,-0.06824 -1.00047,-2.044146 -2.31699,-4.390897 -2.56103,-4.565161 -2.6858,-4.880155 -2.11586,-5.341668 0.23356,-0.189127 0.49916,-0.23308 1.40845,-0.23308 0.86923,0 1.10664,-0.03638 1.05837,-0.162199 -0.0342,-0.08921 -1.44159,-2.057904 -3.12744,-4.374879 -3.2198,-4.425153 -3.31328,-4.595849 -2.8383,-5.18243 0.18944,-0.233955 0.38479,-0.290343 1.18336,-0.341592 0.52606,-0.03376 0.95646,-0.07847 0.95646,-0.09934 0,-0.02088 -1.31727,-1.971285 -2.92726,-4.334238 -2.07447,-3.044642 -2.92727,-4.396395 -2.92727,-4.639937 0,-0.568896 0.4403,-0.920258 1.15318,-0.920258 0.34734,0 0.59355,-0.05312 0.56997,-0.122958 -0.11608,-0.343736 -5.01171,-6.851342 -5.08986,-6.765788 -0.23815,0.260703 -4.9791,6.748985 -4.9791,6.814208 0,0.041 0.28027,0.07454 0.62282,0.07454 0.45674,0 0.68925,0.06643 0.87195,0.249129 0.55139,0.551392 0.43825,0.776906 -2.68721,5.356272 l -2.93307,4.297473 0.96736,0.08042 c 1.07524,0.08939 1.41424,0.324082 1.41424,0.979089 0,0.376105 0.0155,0.353245 -3.81571,5.620499 -1.32688,1.824221 -2.41251,3.351693 -2.41251,3.394381 0,0.04269 0.50703,0.07762 1.12674,0.07762 1.03021,0 1.15294,0.0262 1.43249,0.30575 0.16817,0.168162 0.30575,0.430166 0.30575,0.582231 0,0.152065 -1.09415,2.232182 -2.43145,4.622482 -1.3373,2.390299 -2.39902,4.398483 -2.35937,4.462628 0.10163,0.164449 29.78859,0.157054 29.89026,-0.0074 z"
       id="path1810" />
    <path
       style="fill:#ffffff;fill-opacity:1;stroke-width:0.124564"
       d="m 30.956017,90.523136 c -0.137021,-0.05608 -0.361237,-0.226454 -0.498258,-0.378607 -0.23164,-0.257222 -0.251764,-0.481234 -0.286669,-3.191096 l -0.03754,-2.914455 h -8.095951 -8.095953 l -0.305749,-0.305749 c -0.193517,-0.193517 -0.305749,-0.447925 -0.305749,-0.693076 0,-0.274274 0.889759,-1.979144 3.048378,-5.84101 1.676608,-2.999526 3.086126,-5.552053 3.132263,-5.672283 0.135638,-0.353466 -0.175276,-0.438645 -1.608559,-0.440678 -1.260379,-0.0018 -1.363909,-0.02109 -1.650479,-0.307656 -0.669998,-0.669998 -0.67699,-0.657408 3.7431,-6.73952 3.185999,-4.383983 4.018946,-5.607311 3.908528,-5.740356 -0.0987,-0.118924 -0.465059,-0.169078 -1.235076,-0.169078 -1.069542,0 -1.102182,-0.0088 -1.417239,-0.383251 -0.177366,-0.210787 -0.322484,-0.535118 -0.322484,-0.720734 0,-0.237758 1.124936,-1.987637 3.806945,-5.921841 2.09382,-3.071398 3.778084,-5.659566 3.742813,-5.751486 -0.04473,-0.116574 -0.372839,-0.178097 -1.084724,-0.2034 -0.945948,-0.03362 -1.039062,-0.06106 -1.273157,-0.375227 -0.204016,-0.273795 -0.227065,-0.394925 -0.119899,-0.630128 0.219415,-0.481566 6.501451,-8.963243 6.972561,-9.41399 0.36853,-0.352601 0.498122,-0.405666 0.829186,-0.339535 0.215814,0.04311 0.510269,0.203144 0.654346,0.355633 0.224919,0.238054 6.09775,8.187135 6.690349,9.055623 0.115582,0.169391 0.21015,0.454988 0.21015,0.634657 0,0.546996 -0.331309,0.723356 -1.435959,0.76438 -0.901143,0.03346 -0.992247,0.05994 -0.984393,0.286007 0.0048,0.137021 1.647675,2.650561 3.650922,5.585643 2.003247,2.935084 3.695077,5.475418 3.759623,5.645187 0.160482,0.4221 0.02616,0.869559 -0.349823,1.165304 -0.259898,0.204435 -0.505771,0.247158 -1.422402,0.247158 -0.86835,0 -1.123652,0.04029 -1.17963,0.186167 -0.04483,0.116811 0.911712,1.535284 2.567605,3.807561 1.485324,2.038217 2.610477,3.695841 2.573698,3.791685 -0.03594,0.09366 -0.978289,1.421184 -2.094109,2.950059 -2.127636,2.915245 -2.594694,3.672003 -2.593548,4.202233 0.0021,0.963964 0.650283,1.986552 1.44033,2.272236 0.235093,0.08501 0.427442,0.198612 0.427442,0.252446 0,0.05383 -0.854824,1.626099 -1.899608,3.493922 -1.884898,3.369745 -1.899608,3.402071 -1.899608,4.17457 v 0.778527 h -2.335583 -2.335584 l -7.47e-4,2.584713 c -7.48e-4,2.94174 -0.08506,3.422969 -0.660913,3.774088 -0.359678,0.219311 -0.632481,0.241482 -2.888479,0.234755 -1.370209,-0.0041 -2.603397,-0.05332 -2.740418,-0.109398 z m 26.033971,-0.03069 c -0.137021,-0.07748 -0.305183,-0.229923 -0.373693,-0.338764 -0.06884,-0.109366 -0.152426,-1.507387 -0.186847,-3.125158 l -0.06228,-2.927264 -6.331751,-0.06228 c -6.085661,-0.05986 -6.338619,-0.07168 -6.508493,-0.304078 -0.09721,-0.132987 -0.176742,-0.351225 -0.176742,-0.484973 0,-0.133747 1.093053,-2.19752 2.429007,-4.586163 1.335954,-2.388643 2.429007,-4.398551 2.429007,-4.466464 0,-0.07249 -0.465235,-0.123478 -1.126742,-0.123478 -1.030209,0 -1.152937,-0.0262 -1.432491,-0.30575 -0.572504,-0.572503 -0.81748,-0.13747 3.107842,-5.518927 1.717465,-2.354574 2.812993,-3.965077 2.771232,-4.073907 -0.04939,-0.128702 -0.324417,-0.19044 -0.96535,-0.216698 -0.809805,-0.03318 -0.920646,-0.06942 -1.148764,-0.375674 -0.218942,-0.293929 -0.231907,-0.384106 -0.0976,-0.67888 0.08518,-0.18696 1.391436,-2.158215 2.90278,-4.380567 1.511343,-2.222351 2.775189,-4.145001 2.808545,-4.272556 0.05421,-0.207293 -0.01931,-0.231918 -0.692369,-0.231918 -0.824811,0 -1.144506,-0.187346 -1.144506,-0.670697 0,-0.354567 5.186956,-7.418645 5.629828,-7.667223 0.283587,-0.159173 0.356468,-0.156395 0.631913,0.02408 0.500688,0.328062 5.603023,7.318037 5.603023,7.675894 0,0.4493 -0.352054,0.637943 -1.190557,0.637943 -0.644503,0 -0.730803,0.02793 -0.680514,0.220236 0.03168,0.121129 1.324434,2.075234 2.872795,4.342453 1.548361,2.26722 2.849419,4.258552 2.891241,4.425182 0.05198,0.207093 -0.0079,0.409655 -0.189173,0.640124 -0.242898,0.308797 -0.338132,0.337161 -1.132029,0.337161 -0.630717,0 -0.885165,0.04781 -0.934171,0.175513 -0.03951,0.102951 1.164618,1.86864 2.912573,4.270905 1.638958,2.252467 3.044348,4.215773 3.123089,4.362903 0.214719,0.401206 0.17545,0.636617 -0.162584,0.97465 -0.276584,0.276586 -0.406581,0.30575 -1.362857,0.30575 -0.58141,0 -1.087496,0.04917 -1.124635,0.109262 -0.03714,0.06009 1.024577,2.062177 2.359372,4.449073 1.334796,2.386896 2.426901,4.46157 2.426901,4.610387 0,0.148818 -0.0981,0.389319 -0.217988,0.534448 -0.216168,0.261668 -0.270515,0.264123 -6.508493,0.294069 l -6.290504,0.0302 -0.06787,3.051829 c -0.03733,1.678506 -0.07937,3.064402 -0.09342,3.079771 -0.01406,0.01537 -0.190934,0.113463 -0.393064,0.217988 -0.454979,0.235278 -3.902212,0.268599 -4.303659,0.0416 z"
       id="path1910" />
  </g>
</svg>
